<?xml version="1.0" standalone="no"?>
<!DOCTYPE svg PUBLIC "-//W3C//DTD SVG 20010904//EN"
 "http://www.w3.org/TR/2001/REC-SVG-20010904/DTD/svg10.dtd">
<svg version="1.0" xmlns="http://www.w3.org/2000/svg"
 width="3259.000000pt" height="3259.000000pt" viewBox="0 0 3259.000000 3259.000000"
 preserveAspectRatio="xMidYMid meet">
<metadata>
Created by potrace 1.16, written by Peter Selinger 2001-2019
</metadata>
<g transform="translate(0.000000,3259.000000) scale(0.100000,-0.100000)"
fill="#000000" stroke="none">
<path d="M0 16295 l0 -16295 16295 0 16295 0 0 16295 0 16295 -16295 0 -16295
0 0 -16295z m19936 10140 c10 -8 33 -15 51 -15 17 0 38 -7 47 -15 8 -8 30 -18
48 -22 18 -3 36 -11 40 -16 18 -28 218 -24 218 4 0 15 38 10 44 -6 4 -10 19
-15 48 -15 24 0 81 -2 128 -6 84 -6 87 -7 135 -50 42 -38 53 -43 80 -38 22 4
35 1 45 -10 8 -10 20 -14 32 -10 24 7 75 -13 82 -32 3 -8 19 -14 35 -14 40 0
71 -13 104 -44 27 -25 66 -34 81 -19 18 18 79 31 109 22 18 -5 52 -9 77 -9 25
0 65 -6 90 -14 25 -7 86 -14 135 -15 89 -1 145 -11 168 -29 7 -5 27 -12 45
-15 18 -4 45 -15 60 -26 15 -10 44 -22 65 -26 20 -3 37 -10 37 -15 0 -10 85
-50 107 -50 8 0 26 -9 40 -20 14 -11 39 -20 56 -20 17 0 38 -7 47 -15 9 -8 33
-17 53 -19 20 -3 46 -12 59 -20 13 -8 59 -19 103 -25 43 -6 82 -16 86 -22 4
-7 29 -10 63 -8 31 2 56 1 56 -3 0 -5 5 -8 11 -8 6 0 24 -10 41 -21 19 -14 48
-23 76 -24 25 -1 48 -7 50 -13 2 -7 21 -12 43 -12 28 0 42 -6 51 -20 9 -14 24
-20 48 -20 22 0 49 -9 69 -24 19 -14 46 -24 66 -24 19 0 42 -7 50 -16 9 -9 25
-16 35 -16 11 0 34 -9 52 -20 18 -11 45 -20 60 -20 15 0 33 -7 42 -15 8 -8 29
-18 45 -21 17 -4 31 -10 31 -14 0 -4 21 -12 48 -18 101 -23 125 -31 148 -53
21 -19 27 -21 47 -10 19 10 29 8 67 -13 25 -14 67 -48 94 -76 27 -27 57 -50
67 -50 9 0 41 -18 70 -40 30 -22 58 -40 64 -40 19 0 105 -81 105 -99 0 -9 7
-26 15 -37 8 -10 15 -26 15 -34 0 -8 7 -28 16 -45 8 -17 19 -77 24 -140 5 -60
12 -124 15 -142 3 -18 2 -40 -4 -50 -9 -18 -19 -64 -46 -208 -14 -75 -42 -162
-58 -183 -21 -27 -67 -128 -67 -148 0 -11 -4 -24 -9 -30 -20 -19 -71 -124 -71
-144 0 -11 -7 -23 -15 -26 -8 -4 -15 -17 -15 -29 0 -13 -6 -30 -14 -37 -7 -8
-17 -25 -21 -38 -4 -14 -15 -39 -24 -55 -10 -17 -21 -44 -25 -60 -4 -16 -20
-45 -35 -64 -42 -55 -71 -106 -71 -127 0 -11 -9 -30 -20 -44 -11 -14 -20 -31
-20 -38 0 -7 -9 -30 -19 -50 -11 -21 -22 -54 -26 -74 -4 -20 -13 -39 -20 -42
-7 -2 -18 -27 -25 -55 -7 -28 -16 -51 -21 -51 -5 0 -9 -12 -9 -28 0 -15 -6
-36 -14 -47 -7 -11 -16 -33 -20 -50 -4 -16 -16 -48 -26 -70 -46 -101 -60 -135
-60 -154 0 -11 -4 -22 -9 -25 -5 -3 -12 -21 -15 -40 -4 -19 -15 -45 -25 -57
-10 -13 -21 -34 -25 -46 -4 -13 -12 -23 -17 -23 -6 0 -17 -17 -26 -37 -8 -21
-31 -61 -49 -89 -19 -28 -34 -61 -34 -72 0 -30 -35 -94 -61 -112 -57 -40 -79
-65 -79 -93 0 -16 -11 -43 -25 -61 -14 -18 -25 -37 -25 -42 0 -5 -14 -20 -30
-34 -27 -23 -90 -133 -90 -159 0 -6 -5 -11 -10 -11 -6 0 -18 -15 -27 -34 -8
-19 -27 -39 -40 -45 -13 -6 -31 -27 -39 -46 -8 -19 -18 -35 -22 -35 -4 0 -34
-20 -67 -45 -65 -49 -116 -59 -165 -30 -14 8 -37 19 -53 26 -15 6 -32 19 -37
29 -5 10 -23 21 -38 25 -16 3 -43 21 -61 40 -18 19 -38 35 -45 35 -7 0 -24 20
-40 44 -15 24 -39 49 -54 57 -15 8 -43 30 -63 49 -20 19 -42 40 -48 45 -7 6
-32 31 -56 58 -25 26 -48 47 -52 47 -5 0 -19 12 -32 25 -26 28 -39 31 -65 12
-20 -15 -34 2 123 -152 137 -136 161 -160 161 -168 0 -11 99 -107 111 -107 5
0 9 -5 9 -10 0 -22 57 -79 129 -128 92 -64 91 -63 164 -57 37 3 76 1 85 -4 19
-10 101 23 115 45 13 22 68 74 78 74 5 0 9 14 9 30 0 18 8 37 20 47 11 10 20
21 20 26 0 5 17 25 38 45 21 20 51 57 67 82 16 25 51 66 77 91 26 25 48 50 48
56 0 6 6 16 14 22 8 7 17 27 20 45 4 18 15 41 26 51 11 10 20 24 20 32 0 7 15
28 33 46 18 17 36 40 40 50 8 21 54 23 82 3 11 -8 40 -20 65 -27 25 -7 62 -28
83 -47 36 -31 40 -32 60 -19 12 8 24 23 26 33 6 34 20 41 93 47 66 6 77 4 116
-19 41 -25 50 -26 128 -19 83 7 84 6 126 -24 55 -41 110 -43 134 -5 12 17 14
28 7 35 -12 12 -5 49 8 49 5 0 9 6 9 13 0 8 8 21 18 30 15 14 60 17 284 23
261 7 266 7 296 -14 25 -18 44 -22 115 -22 66 0 86 -3 91 -15 4 -12 24 -15 90
-15 61 0 87 -4 93 -14 5 -8 37 -15 88 -19 55 -4 83 -11 91 -21 6 -9 22 -16 36
-16 14 0 37 -9 51 -20 14 -11 40 -20 60 -20 20 0 39 -4 42 -10 3 -5 21 -10 38
-10 18 0 50 -9 72 -20 22 -11 46 -20 55 -20 23 0 104 -40 113 -56 4 -8 19 -14
32 -14 14 0 25 -4 25 -10 0 -5 12 -12 28 -16 28 -6 93 -35 102 -45 3 -3 12 -8
20 -12 24 -11 54 -31 61 -41 8 -11 78 -36 100 -36 9 0 19 -7 23 -15 3 -8 14
-15 24 -15 10 0 52 -32 92 -72 82 -79 77 -64 72 -226 -2 -64 -5 -75 -22 -79
-13 -4 -20 -14 -20 -30 0 -22 -4 -24 -37 -21 -21 2 -38 8 -38 15 0 16 -35 42
-57 43 -11 0 -18 10 -20 28 -3 25 -7 27 -55 30 -29 2 -53 7 -53 13 0 18 -48
10 -55 -9 -10 -35 -134 -152 -159 -152 -13 0 -35 -9 -50 -21 -16 -12 -48 -23
-81 -26 -38 -4 -55 -10 -55 -20 0 -7 -7 -16 -15 -19 -8 -4 -15 -11 -15 -17 0
-6 -7 -18 -15 -27 -13 -15 -13 -22 1 -63 9 -26 21 -47 27 -47 7 0 7 -4 -1 -12
-7 -7 -12 -22 -12 -35 0 -23 -2 -23 -114 -23 -105 0 -114 1 -119 20 -3 11 -1
20 4 20 5 0 9 8 9 18 0 14 -7 17 -46 14 -36 -3 -47 -9 -54 -27 -10 -26 -52
-40 -80 -25 -10 5 -41 10 -68 10 -39 0 -54 -5 -81 -29 -28 -25 -37 -28 -58
-20 -42 16 -124 11 -138 -8 -11 -14 -35 -18 -130 -23 -96 -5 -118 -9 -126 -23
-8 -14 -25 -17 -104 -17 -80 0 -98 -3 -114 -19 -19 -19 -19 -19 0 -24 24 -7
27 -72 4 -81 -25 -9 -55 16 -55 45 0 30 -15 39 -65 39 -48 0 -65 -9 -65 -35 0
-22 -23 -55 -38 -55 -4 0 -18 9 -32 20 -40 31 -130 23 -152 -14 -4 -8 -58 -13
-159 -14 -83 -2 -160 -7 -170 -12 -10 -6 -63 -10 -119 -10 -83 0 -108 -4 -142
-21 -38 -19 -46 -20 -102 -9 -75 15 -106 44 -106 100 0 30 -7 45 -27 65 -16
14 -36 28 -45 31 -10 3 -18 9 -18 13 0 5 -13 14 -29 21 -16 6 -31 19 -34 29
-7 30 -75 55 -147 56 -84 0 -107 -7 -153 -50 -55 -51 -102 -49 -156 5 -22 22
-47 40 -55 40 -9 0 -40 23 -68 52 -29 28 -65 56 -79 62 -14 6 -40 28 -58 49
-18 20 -38 37 -44 37 -6 0 -18 7 -28 16 -14 12 -50 17 -171 21 -112 3 -157 9
-169 19 -8 8 -21 14 -27 14 -7 0 -12 4 -12 9 0 4 -12 21 -27 37 l-27 29 -740
9 c-542 6 -759 6 -809 -3 -46 -7 -323 -11 -886 -11 -891 0 -856 2 -918 -56
-63 -59 -60 -58 -270 -56 -224 3 -262 -5 -326 -70 -21 -21 -46 -38 -55 -38
-10 0 -22 -4 -28 -9 -5 -6 -195 -11 -460 -13 l-451 -3 -62 -43 c-73 -49 -79
-51 -317 -56 -149 -3 -175 -6 -197 -22 -30 -22 -57 -75 -57 -110 0 -32 -26
-94 -40 -94 -5 0 -24 -12 -41 -27 -37 -34 -37 -72 2 -90 35 -17 452 -19 494
-3 17 6 42 25 57 41 45 49 64 51 295 44 117 -4 251 -4 299 0 l86 7 50 51 51
52 455 5 c352 4 456 8 460 18 2 6 10 12 18 12 8 0 32 18 54 39 28 27 53 42 80
46 55 9 1080 13 1655 6 429 -6 483 -8 512 -24 38 -20 104 -22 228 -3 63 9 194
12 435 11 380 -2 380 -2 434 -66 20 -24 42 -35 84 -45 31 -8 67 -14 80 -14 23
0 39 -10 70 -42 9 -10 27 -18 40 -18 12 0 25 -7 28 -15 4 -8 16 -15 28 -15 29
-1 53 -21 61 -51 l6 -24 -458 3 c-410 3 -460 5 -477 20 -16 15 -40 17 -175 14
-86 -2 -362 -4 -613 -5 -418 -2 -458 -3 -470 -19 -9 -12 -31 -18 -73 -20 -54
-3 -60 -5 -63 -26 -2 -13 -14 -27 -27 -32 -13 -5 -31 -20 -40 -33 -10 -16 -29
-27 -54 -31 -21 -3 -41 -13 -45 -21 -3 -10 -19 -15 -43 -15 -44 0 -55 -6 -73
-39 -19 -37 8 -51 95 -51 69 0 74 -2 108 -35 35 -34 39 -35 110 -35 62 0 79 4
103 23 27 21 38 22 209 23 307 1 638 15 665 27 14 6 33 18 42 26 15 11 43 13
155 7 176 -9 247 -26 301 -75 23 -20 42 -41 42 -47 0 -6 9 -19 20 -29 24 -22
26 -51 4 -59 -9 -3 -37 -6 -62 -6 -82 0 -120 -11 -149 -42 -65 -68 -85 -74
-247 -80 -84 -4 -151 -10 -155 -16 -3 -6 -18 -13 -32 -17 -14 -3 -39 -18 -55
-32 -27 -24 -33 -25 -112 -20 -134 10 -265 -23 -358 -90 -29 -21 -38 -22 -185
-17 -147 5 -156 4 -174 -16 -10 -11 -22 -20 -28 -20 -5 0 -27 -16 -48 -35
l-39 -35 -125 -1 c-69 -1 -128 -2 -132 -4 -54 -15 -76 -29 -98 -63 -11 -17
-25 -31 -32 -32 -7 0 -16 -6 -20 -14 -16 -27 -55 -37 -176 -46 -125 -9 -181
-26 -219 -67 -36 -39 -53 -46 -127 -53 -89 -10 -131 -19 -131 -30 0 -5 -21
-22 -47 -39 l-46 -31 -159 7 c-138 5 -161 4 -176 -10 -9 -9 -39 -38 -67 -64
l-50 -48 -157 2 c-87 2 -158 -1 -158 -5 0 -4 -24 -18 -54 -32 -29 -14 -57 -33
-62 -44 -8 -15 -24 -19 -114 -23 -58 -2 -109 -9 -115 -14 -5 -5 -22 -9 -38 -9
-58 0 -115 -22 -146 -56 -39 -42 -65 -47 -244 -42 l-144 3 -78 80 c-43 44 -81
79 -85 78 -5 -1 -30 20 -57 47 -26 27 -57 50 -68 50 -30 0 -52 18 -177 144
-86 86 -122 116 -152 124 -22 7 -55 29 -81 54 -23 24 -68 65 -99 93 -45 39
-56 55 -54 75 3 22 8 25 48 28 63 3 86 10 105 28 9 9 36 19 61 22 34 4 51 12
74 39 35 40 36 48 11 89 -24 39 -48 44 -200 44 -97 0 -122 -3 -154 -20 -27
-15 -56 -20 -108 -20 -67 0 -208 26 -219 40 -8 10 -40 8 -40 -3 0 -5 -16 -6
-37 -3 -53 10 -92 9 -218 -2 -116 -10 -139 -16 -167 -40 -12 -10 -54 -16 -145
-19 -70 -3 -130 -9 -133 -13 -14 -20 -75 -40 -121 -40 -35 0 -67 -8 -101 -25
-27 -14 -62 -25 -77 -25 -16 0 -39 -10 -53 -22 -48 -44 -66 -56 -89 -63 -12
-4 -36 -16 -53 -26 -17 -11 -41 -19 -53 -19 -12 0 -26 -6 -30 -12 -4 -7 -34
-26 -65 -42 -46 -24 -61 -38 -73 -68 -16 -42 -19 -68 -7 -68 4 0 13 -14 21
-31 18 -41 44 -49 170 -49 91 0 112 3 132 19 13 10 38 22 56 25 17 4 34 13 36
20 3 7 29 16 59 19 29 4 71 16 93 27 21 11 50 20 62 20 13 0 23 5 23 10 0 6 5
10 10 10 6 0 23 9 38 19 15 10 51 22 81 25 30 3 61 12 71 21 11 10 37 15 82
15 50 0 71 5 91 20 21 17 40 20 115 20 67 0 94 -4 106 -15 8 -8 24 -15 35 -15
11 0 32 -12 46 -26 21 -21 25 -33 21 -58 -3 -17 -3 -25 0 -18 11 23 32 12 39
-20 4 -18 9 -41 12 -52 3 -12 1 -16 -6 -12 -7 5 -11 -2 -11 -19 0 -15 -5 -25
-12 -24 -27 3 -37 -2 -36 -18 3 -40 -11 -68 -34 -69 -57 -4 -63 -9 -60 -48 3
-35 2 -36 -21 -31 -30 8 -67 -9 -67 -30 0 -11 -12 -15 -42 -16 -24 0 -56 -3
-73 -6 -16 -2 -77 -7 -135 -9 -129 -5 -154 -10 -146 -29 3 -8 0 -20 -8 -27
-21 -19 3 -57 39 -60 24 -2 31 -8 33 -30 3 -26 6 -28 52 -28 27 0 61 5 75 12
22 10 28 8 48 -10 13 -12 29 -22 35 -22 7 0 12 -4 12 -10 0 -5 12 -10 28 -10
31 0 59 -44 42 -65 -5 -6 -6 -22 -3 -35 4 -15 2 -21 -4 -17 -12 8 -23 -14 -23
-44 0 -10 7 -19 15 -19 10 0 15 -11 15 -35 0 -34 -1 -35 -37 -36 -22 -1 6 -8
67 -19 58 -9 111 -15 118 -12 8 3 10 -1 6 -11 -3 -9 -12 -13 -21 -10 -13 5
-13 3 -4 -15 7 -14 8 -23 1 -27 -5 -3 -10 -15 -10 -26 0 -10 -7 -19 -15 -19
-18 0 -19 -16 -3 -34 13 -13 54 -10 64 5 8 14 24 11 24 -5 0 -21 -30 -41 -56
-38 -17 2 -24 -2 -24 -12 0 -9 5 -16 10 -16 6 0 10 -11 10 -25 0 -21 -5 -25
-27 -25 -59 -1 -136 -37 -189 -90 -31 -30 -70 -57 -96 -66 -29 -9 -50 -26 -65
-48 -15 -23 -32 -36 -55 -41 -63 -12 -163 -39 -173 -47 -5 -4 -32 -26 -60 -48
-46 -37 -54 -40 -111 -40 -79 0 -124 -9 -124 -26 0 -7 -8 -15 -18 -18 -9 -3
-23 -19 -30 -36 -16 -35 -58 -50 -146 -50 -57 0 -126 -28 -126 -50 0 -5 -22
-20 -50 -34 -43 -22 -72 -27 -207 -36 -87 -5 -227 -10 -311 -10 -132 0 -158
-3 -192 -20 -37 -19 -54 -19 -372 -14 -183 3 -522 7 -753 10 -231 2 -434 7
-452 9 -17 3 -34 12 -37 20 -3 8 -12 15 -21 15 -8 0 -15 5 -15 10 0 6 -19 10
-42 10 -49 0 -60 6 -77 38 -7 13 -21 22 -36 22 -15 0 -39 14 -60 36 -20 19
-48 37 -62 38 -29 3 -45 26 -19 26 24 0 20 38 -6 66 -19 20 -33 24 -84 24 -46
0 -63 4 -68 15 -8 21 -33 19 -67 -6 -31 -22 -59 -20 -59 5 0 12 -24 25 -54 30
-18 2 -34 73 -35 153 -1 91 -3 94 -74 107 -30 6 -42 4 -51 -9 -15 -21 -21
-171 -7 -180 14 -8 14 -82 1 -87 -5 -1 -11 -26 -12 -54 -2 -44 -5 -50 -20 -46
-13 3 -18 -1 -18 -16 0 -18 -8 -21 -57 -27 -32 -3 -65 -7 -73 -7 -22 -2 -70
13 -70 21 0 12 -96 31 -153 31 l-52 0 -1 -56 c-1 -31 -7 -60 -13 -63 -14 -9
-4 -41 13 -41 6 0 11 -15 12 -34 0 -28 -4 -35 -29 -44 -17 -6 -33 -10 -36 -8
-18 11 -185 15 -196 6 -9 -7 -121 -13 -312 -16 -164 -3 -323 -9 -353 -14 -30
-5 -255 -9 -500 -9 -259 1 -466 -3 -494 -9 -47 -9 -50 -9 -75 18 -86 92 -315
142 -372 81 -17 -18 -32 -21 -105 -21 -72 0 -90 3 -108 20 -11 10 -31 27 -44
37 l-23 18 21 28 c29 37 81 57 149 57 84 0 96 6 120 60 17 37 34 56 71 79 27
17 64 46 82 66 29 31 40 36 98 41 91 9 146 29 188 69 28 26 54 38 104 50 37 8
78 15 92 15 39 0 79 19 108 50 27 30 54 39 186 60 63 10 78 17 113 51 22 21
46 39 52 40 149 9 188 17 209 42 13 14 40 37 61 51 33 23 49 26 120 26 75 0
86 3 131 33 81 53 89 57 134 57 72 0 173 31 182 56 12 30 90 64 142 62 57 -2
120 17 144 42 59 63 65 67 116 74 29 3 89 6 133 6 95 0 138 14 185 59 58 55
91 71 145 71 80 0 126 18 171 66 44 46 54 50 158 58 64 5 73 9 110 45 66 63
92 70 264 73 95 2 155 7 160 14 4 6 30 23 57 38 46 24 58 26 135 23 100 -5
140 0 140 19 0 7 24 25 54 39 42 20 59 23 73 15 10 -5 30 -14 46 -20 16 -6 27
-17 27 -28 0 -23 19 -40 90 -77 30 -15 58 -33 61 -38 4 -5 25 -13 47 -17 38
-7 40 -6 53 27 9 24 19 33 36 33 13 0 23 5 23 10 0 6 20 10 44 10 25 0 51 6
58 14 8 7 24 17 36 20 12 4 22 11 22 15 0 4 18 14 40 21 22 7 40 19 40 27 0 7
7 13 15 13 8 0 21 15 29 34 8 18 22 40 33 47 22 17 43 61 43 92 1 52 46 75
187 96 70 11 115 31 137 62 28 40 68 59 126 59 30 0 102 7 158 14 91 12 107
17 135 43 66 62 70 63 224 63 153 0 173 4 216 44 15 14 31 26 34 26 4 0 15 8
26 18 16 14 45 18 172 22 125 5 155 9 169 23 10 9 22 17 27 17 6 0 25 17 44
38 l35 37 240 1 c223 2 242 3 272 22 21 14 36 33 43 59 15 54 49 61 276 62
180 1 244 10 261 35 15 21 8 75 -11 93 -31 30 -34 58 -11 107 28 58 24 76 -25
103 -38 21 -51 23 -231 23 -172 0 -196 -2 -242 -21 -28 -12 -54 -29 -57 -38
-3 -9 -20 -25 -37 -36 -38 -22 -156 -26 -339 -11 -145 12 -185 5 -239 -44 -24
-22 -52 -40 -62 -40 -9 0 -19 -4 -22 -9 -3 -4 -63 -11 -133 -15 -162 -9 -193
-17 -216 -55 -22 -38 -66 -51 -167 -51 -74 0 -220 -24 -230 -38 -3 -4 -23 -21
-45 -38 -47 -36 -97 -51 -183 -58 -50 -3 -70 -10 -98 -33 -83 -67 -96 -73
-149 -73 -41 0 -57 5 -79 25 -33 30 -33 66 -1 96 13 13 25 30 25 37 0 6 5 12
10 12 6 0 10 8 10 18 0 9 6 28 13 42 9 16 11 36 5 55 -5 20 -3 34 7 45 8 8 19
47 25 85 6 39 15 72 21 73 5 2 9 27 9 55 0 29 5 68 11 87 6 19 12 53 14 75 2
22 9 69 15 105 14 83 32 527 29 725 0 28 2 78 6 111 6 49 4 66 -9 87 -16 23
-16 28 -2 62 9 21 16 53 16 72 0 19 5 43 10 54 7 12 8 31 2 52 -6 22 -4 40 4
56 8 15 9 31 4 40 -4 9 -8 55 -9 103 0 49 -5 106 -11 128 -6 23 -8 49 -5 60 3
10 0 28 -7 39 -10 17 -10 25 0 41 10 16 10 24 -2 43 -7 12 -17 38 -20 58 -4
21 -13 42 -21 49 -8 7 -15 18 -15 26 0 12 -29 34 -44 34 -11 0 -6 -48 9 -107
11 -39 14 -77 9 -116 -4 -43 -2 -66 10 -92 12 -25 16 -59 14 -132 -1 -54 3
-107 9 -117 7 -14 6 -26 -4 -48 -10 -19 -13 -41 -8 -66 13 -70 8 -203 -9 -221
-12 -13 -18 -59 -26 -182 -6 -90 -15 -189 -21 -219 -6 -30 -14 -92 -18 -137
-4 -44 -12 -87 -18 -95 -7 -8 -11 -67 -10 -158 0 -178 -12 -378 -24 -386 -5
-3 -9 -21 -9 -40 0 -41 -24 -102 -46 -118 -8 -6 -16 -27 -18 -46 -1 -19 -8
-48 -15 -65 -6 -16 -17 -43 -23 -60 -6 -16 -14 -34 -18 -40 -4 -5 -10 -22 -14
-37 -3 -16 -11 -28 -16 -28 -6 0 -10 -6 -10 -12 0 -23 -60 -131 -80 -145 -11
-8 -20 -20 -20 -27 0 -28 -88 -86 -130 -86 -26 0 -124 -45 -140 -65 -14 -17
-61 -20 -77 -4 -6 6 -63 12 -129 14 -131 4 -216 17 -222 34 -2 6 -8 11 -14 11
-21 0 -135 59 -172 89 -21 17 -45 31 -52 31 -7 0 -25 11 -40 25 -15 14 -33 25
-40 25 -7 0 -14 3 -16 8 -5 11 -82 62 -94 62 -6 0 -19 9 -29 20 -10 11 -24 20
-32 20 -7 0 -13 3 -13 8 0 4 -15 16 -34 26 -19 10 -37 25 -40 32 -3 8 -12 14
-21 14 -8 0 -15 4 -15 10 0 5 -17 18 -37 29 -21 10 -49 31 -62 45 -14 14 -30
26 -38 26 -7 0 -22 9 -32 19 -17 17 -56 41 -156 96 -11 6 -36 26 -57 45 -56
54 -90 80 -104 80 -6 0 -14 7 -18 15 -3 8 -17 20 -31 25 -14 5 -25 14 -25 20
0 5 -6 10 -14 10 -7 0 -25 11 -40 25 -15 14 -34 25 -42 25 -8 0 -24 12 -37 26
-24 28 -102 84 -117 84 -5 0 -13 6 -17 13 -9 13 -27 26 -88 58 -43 24 -148
100 -153 112 -2 4 -8 7 -14 7 -24 0 -107 65 -124 96 -10 19 -24 34 -31 34 -7
0 -16 6 -20 13 -12 19 -90 57 -118 57 -32 0 -84 32 -139 85 -45 43 -107 88
-157 113 -14 8 -63 50 -108 93 -45 44 -93 84 -106 89 -14 5 -25 16 -25 23 0 8
-25 40 -56 72 -31 32 -67 75 -82 94 -14 20 -31 41 -36 46 -6 6 -24 30 -41 55
-16 24 -38 52 -47 62 -9 9 -20 33 -24 52 -3 20 -10 36 -15 36 -5 0 -9 14 -9
30 0 17 -7 44 -15 59 -21 41 -25 209 -5 221 9 6 15 25 15 52 0 30 7 53 23 72
12 16 22 35 22 43 0 7 7 16 15 19 8 3 19 21 25 39 6 19 26 47 45 62 18 15 46
39 62 53 32 26 113 133 113 148 0 4 8 17 18 28 18 19 25 30 68 111 9 17 27 37
40 43 12 7 28 26 35 41 6 16 17 29 24 29 8 0 68 54 135 120 67 66 129 120 136
120 8 0 17 7 20 15 4 8 10 15 14 15 4 0 26 17 48 38 22 20 61 55 87 77 75 64
85 74 85 89 0 8 13 23 29 32 16 10 35 27 41 39 7 12 43 44 81 71 38 27 69 53
69 57 0 4 19 16 43 26 38 17 59 34 93 73 6 7 22 20 34 28 12 8 30 22 39 31 9
9 26 20 38 23 13 4 30 20 39 36 10 16 28 34 41 41 14 7 29 21 34 31 5 10 15
18 22 18 7 1 21 12 32 26 11 14 27 33 36 42 8 10 23 29 32 44 11 18 32 31 59
38 54 15 81 34 110 76 12 19 41 44 63 55 22 11 49 29 60 39 11 10 30 21 43 25
12 3 22 10 22 15 0 5 13 11 29 15 16 3 37 15 47 26 9 10 25 19 34 19 10 0 23
7 30 15 7 8 18 15 25 15 8 0 27 12 45 26 20 18 49 29 88 35 86 12 162 31 162
40 0 16 115 31 200 25 211 -15 263 -37 336 -145 18 -25 54 -69 80 -98 64 -69
74 -80 74 -91 0 -5 9 -19 20 -32 11 -13 20 -28 20 -35 0 -18 26 -67 49 -91 24
-26 81 -138 81 -159 0 -8 4 -15 8 -15 4 0 16 -22 26 -49 10 -28 24 -55 32 -62
8 -6 14 -17 14 -24 0 -8 3 -15 8 -17 11 -5 52 -93 52 -112 0 -18 18 -58 67
-146 17 -30 39 -71 49 -90 11 -19 23 -38 27 -41 5 -3 13 -26 18 -50 15 -68 51
-183 59 -189 5 -3 16 -32 25 -65 10 -33 21 -64 25 -70 4 -5 10 -55 13 -110 5
-114 18 -150 65 -190 29 -25 34 -26 50 -13 30 27 73 31 302 29 184 -1 227 -4
236 -16 10 -13 86 -15 526 -15 383 0 517 3 526 12 9 9 18 6 38 -13 l26 -24
428 -5 429 -5 28 -27 29 -28 375 0 c363 0 377 -1 394 -20 18 -19 31 -20 466
-20 431 0 449 -1 466 -19 17 -19 39 -20 388 -25 556 -9 656 -14 678 -34 17
-15 64 -17 506 -19 267 -1 491 -2 498 -2 7 -1 24 -12 39 -26 l27 -25 346 0
c336 0 347 -1 381 -21 33 -21 43 -22 222 -16 104 3 201 2 220 -3 42 -12 208
-171 208 -200 0 -5 19 -29 43 -54 23 -24 53 -59 67 -76 35 -45 62 -70 75 -70
7 0 26 -15 43 -32 17 -18 54 -55 82 -81 27 -27 50 -53 50 -58 0 -5 6 -9 14 -9
8 0 30 -18 49 -40 19 -22 39 -40 44 -40 19 0 23 44 6 70 -19 28 -154 160 -164
160 -4 0 -18 17 -30 38 -13 20 -27 39 -31 40 -4 2 -8 7 -8 12 0 5 -17 26 -37
48 -21 22 -52 59 -70 83 -18 24 -44 57 -59 72 -14 16 -36 55 -49 88 -13 32
-38 74 -57 92 -18 18 -46 56 -62 83 -17 27 -36 53 -43 57 -7 4 -39 40 -70 80
-31 40 -71 86 -88 102 -17 17 -36 44 -42 61 -6 17 -27 52 -46 77 -19 25 -37
61 -41 81 -4 19 -12 41 -19 48 -27 30 -57 78 -57 93 0 8 -4 15 -8 15 -5 0 -16
26 -26 58 -10 31 -21 59 -25 62 -12 10 -59 116 -66 150 -7 35 -28 78 -65 135
-28 43 -78 147 -85 178 -4 15 -12 31 -19 35 -14 9 -31 36 -56 88 -11 22 -30
51 -42 65 -23 24 -28 33 -70 114 -11 22 -23 42 -27 45 -11 9 -61 89 -61 99 0
5 -7 11 -15 15 -8 3 -15 15 -15 27 0 22 -15 60 -56 144 -13 28 -24 56 -24 64
0 7 -7 29 -16 49 -9 21 -21 48 -26 62 -6 14 -14 32 -18 40 -5 8 -28 53 -52
100 -23 47 -59 106 -80 133 -26 33 -39 62 -43 95 -4 26 -24 83 -45 127 -21 44
-41 92 -44 108 -4 15 -10 27 -15 27 -5 0 -12 13 -16 29 -3 16 -13 35 -20 41
-8 7 -17 27 -21 46 -3 18 -12 38 -20 45 -8 6 -14 16 -14 21 0 5 -9 30 -21 56
-11 26 -26 61 -34 77 -19 45 -31 230 -21 341 7 77 20 112 48 124 29 13 90 49
103 61 13 13 39 11 61 -6z m-4437 -1425 c25 -13 26 -32 7 -68 -22 -41 -46 -99
-46 -109 0 -13 -35 -44 -42 -38 -8 8 -68 -170 -68 -201 0 -8 -4 -14 -9 -14 -5
0 -13 -14 -16 -32 -4 -17 -14 -38 -21 -46 -8 -7 -14 -22 -14 -32 0 -11 -11
-27 -25 -36 -14 -9 -25 -26 -25 -37 0 -11 -6 -28 -14 -36 -9 -10 -18 -63 -26
-146 -6 -71 -15 -132 -19 -135 -4 -3 -11 -22 -14 -42 -3 -20 -15 -47 -26 -60
-44 -49 -51 -58 -51 -70 0 -7 -7 -26 -16 -43 -9 -17 -20 -76 -25 -135 -20
-218 -26 -261 -44 -280 -16 -18 -32 -20 -125 -20 -83 0 -110 -3 -120 -15 -18
-22 -175 -22 -184 0 -5 14 -57 16 -428 15 -233 0 -437 -1 -453 0 -27 0 -31 4
-33 33 -3 42 -21 99 -36 112 -24 21 -44 72 -50 130 -4 33 -18 83 -31 112 -14
28 -25 63 -25 77 0 14 -4 28 -10 31 -5 3 -10 17 -10 29 0 13 -9 34 -19 48 -11
13 -23 37 -26 51 -4 15 -13 31 -19 35 -19 11 -57 98 -63 143 -3 22 -12 43 -19
46 -8 3 -14 10 -14 15 0 5 -9 22 -19 37 -11 15 -22 43 -26 64 -4 20 -12 37
-19 37 -6 0 -17 12 -23 28 -7 15 -22 44 -35 64 -81 129 -101 166 -102 193 l-1
30 68 5 c38 3 71 3 73 1 11 -12 48 -10 58 3 6 7 23 17 39 20 15 4 36 15 47 26
11 11 26 20 34 20 8 0 21 7 30 15 12 12 58 18 213 25 109 6 231 12 271 14 40
2 78 8 85 14 6 5 46 12 87 15 41 3 76 6 78 6 2 1 0 6 -3 11 -3 6 5 10 19 10
14 0 28 5 31 10 4 6 11 8 16 5 5 -3 18 3 30 14 12 11 43 22 73 26 28 4 56 12
63 17 7 5 144 12 310 15 164 3 299 7 301 8 10 9 444 -5 461 -15z m1226 -21
c39 -7 75 -20 81 -28 6 -8 16 -11 22 -7 7 4 12 2 12 -3 0 -6 9 -11 20 -11 12
0 38 -9 60 -20 27 -14 59 -20 102 -20 35 0 81 -7 103 -15 26 -9 84 -14 165
-15 116 -1 315 -14 350 -23 8 -2 28 -9 43 -15 16 -7 31 -12 35 -12 4 0 13 -9
19 -19 7 -11 29 -22 53 -26 22 -4 38 -10 35 -15 -3 -5 30 -11 72 -15 43 -4 83
-12 89 -17 7 -5 16 -8 20 -7 14 4 164 -11 231 -22 45 -8 69 -18 91 -40 33 -32
95 -62 107 -51 5 4 5 2 2 -4 -7 -12 34 -24 84 -24 15 0 30 -4 33 -9 3 -5 46
-12 95 -16 54 -4 91 -12 94 -19 3 -6 28 -18 56 -26 28 -7 51 -17 51 -22 0 -32
92 -65 195 -70 17 -1 35 -5 40 -9 6 -3 30 -9 55 -13 32 -5 56 -17 83 -41 21
-19 43 -35 48 -35 5 0 12 -6 15 -14 5 -12 59 -26 159 -40 17 -2 44 -11 60 -20
17 -9 38 -16 48 -16 10 0 20 -7 23 -15 4 -8 12 -15 19 -15 8 0 26 -10 42 -23
35 -28 97 -57 123 -57 10 0 21 -4 24 -8 3 -5 31 -14 63 -21 43 -10 66 -21 88
-46 17 -18 47 -38 68 -46 20 -7 37 -16 37 -21 0 -4 17 -10 38 -14 20 -3 46
-12 57 -19 11 -7 35 -16 54 -20 20 -4 35 -14 38 -26 3 -10 12 -19 19 -19 8 0
17 -7 20 -15 4 -8 10 -15 15 -15 8 0 27 -8 89 -35 3 -2 15 -6 28 -10 12 -4 22
-11 22 -15 0 -4 20 -10 45 -12 27 -4 57 -16 77 -32 75 -61 117 -102 118 -113
0 -7 4 -13 10 -13 5 0 16 -22 24 -49 15 -50 38 -93 66 -121 39 -40 72 -92 90
-144 11 -32 33 -74 50 -94 17 -21 40 -48 51 -60 32 -40 25 -44 -68 -38 -49 3
-178 10 -288 14 -145 7 -211 13 -240 25 -35 14 -101 16 -512 17 -260 0 -473 3
-473 8 0 4 -18 15 -40 25 -36 15 -87 17 -535 17 l-495 0 -38 25 -37 25 -435
-1 c-381 0 -435 2 -442 16 -7 12 -29 15 -108 15 -54 0 -122 5 -150 11 -44 9
-50 14 -50 36 0 14 -15 49 -34 77 -18 28 -36 65 -39 81 -15 78 -25 116 -34
127 -6 7 -13 60 -17 117 -15 237 -50 379 -110 444 -29 32 -43 84 -51 194 -4
51 -11 90 -16 87 -5 -3 -9 4 -9 16 0 30 -47 130 -65 136 -8 4 -15 11 -15 18 0
6 -7 24 -15 40 -8 16 -22 58 -30 94 -9 36 -19 70 -24 76 -4 6 -11 24 -15 39
-4 16 -20 41 -36 57 -28 27 -28 29 -10 35 11 4 20 11 20 17 0 12 86 6 185 -13z
m-653 -431 c7 -13 11 -26 10 -30 -1 -5 2 -8 7 -8 4 0 11 -27 15 -60 4 -33 10
-59 14 -56 4 2 8 -13 8 -33 1 -21 13 -62 27 -92 13 -30 27 -62 30 -71 4 -10
11 -18 17 -18 5 0 10 -7 10 -15 0 -7 7 -18 15 -23 18 -9 29 -79 40 -242 4 -58
11 -115 16 -128 5 -13 11 -46 14 -75 3 -31 11 -55 20 -60 8 -4 15 -19 15 -32
0 -13 8 -30 19 -37 10 -7 22 -28 25 -46 4 -18 12 -30 17 -26 5 3 10 -14 10
-38 1 -24 3 -53 4 -66 1 -14 -5 -27 -18 -34 -12 -6 -139 -12 -336 -16 l-316
-5 -39 27 c-21 14 -45 26 -54 26 -11 0 -13 9 -8 45 4 24 14 57 22 73 7 16 16
67 19 113 7 105 14 149 23 149 4 0 8 15 8 33 2 97 5 114 24 135 11 12 20 26
20 32 0 6 6 13 14 16 8 3 20 20 27 37 7 18 16 34 19 37 4 3 12 51 19 108 7 56
19 118 27 137 8 19 14 41 14 50 0 8 8 23 18 33 36 38 62 77 62 93 0 9 7 19 15
23 8 3 15 16 15 29 0 31 7 37 46 37 24 0 37 -6 46 -22z m-6692 -1539 c69 -5
146 -12 173 -15 39 -5 47 -3 47 10 0 9 5 16 10 16 6 0 10 -7 10 -15 0 -8 -4
-15 -8 -15 -19 0 -56 -127 -53 -180 5 -74 15 -122 27 -127 20 -7 17 -40 -3
-52 -16 -8 -18 -24 -16 -121 3 -111 13 -151 47 -179 9 -8 16 -21 16 -31 0 -18
35 -62 116 -144 22 -22 46 -56 53 -73 8 -18 17 -33 22 -33 4 0 10 -8 13 -18 4
-11 17 -25 31 -32 16 -9 30 -31 41 -64 9 -28 29 -73 44 -101 15 -27 33 -67 39
-88 14 -42 87 -172 113 -201 9 -10 26 -37 37 -60 10 -23 42 -66 70 -95 28 -29
51 -57 51 -61 0 -7 18 -27 107 -122 15 -16 30 -28 34 -28 3 0 9 -9 12 -20 3
-11 21 -29 40 -40 19 -11 37 -29 40 -40 3 -11 20 -28 39 -39 18 -11 41 -34 51
-50 9 -16 25 -32 35 -35 10 -4 40 -31 67 -61 26 -30 53 -55 59 -55 6 -1 20
-15 31 -33 11 -17 33 -38 48 -45 15 -7 27 -17 27 -23 0 -5 7 -9 15 -9 7 0 18
-6 22 -13 4 -8 22 -22 38 -33 17 -10 34 -24 38 -31 4 -7 15 -13 22 -13 8 0 15
-4 15 -9 0 -5 13 -14 29 -20 15 -7 48 -30 72 -52 24 -21 46 -39 49 -39 17 0
91 -80 85 -91 -16 -24 -144 8 -165 41 -4 7 -44 14 -96 17 -65 4 -96 10 -115
23 -15 11 -39 22 -53 26 -14 3 -30 12 -37 20 -8 10 -35 14 -91 14 -65 0 -85 4
-105 20 -22 17 -41 20 -140 20 -101 0 -117 2 -143 22 -24 17 -49 22 -137 28
-59 4 -128 15 -152 24 -29 11 -75 16 -139 16 -87 0 -98 2 -129 25 -31 24 -42
26 -174 30 -120 4 -145 8 -169 25 -24 17 -44 20 -135 20 -92 0 -111 3 -136 21
-24 17 -49 21 -170 26 -110 5 -144 10 -157 22 -12 13 -44 17 -151 19 -75 2
-141 8 -146 12 -6 5 -56 21 -110 35 -55 14 -105 32 -111 41 -7 8 -29 18 -50
21 -22 3 -50 14 -63 25 -13 10 -34 18 -47 18 -15 0 -29 10 -40 29 -12 20 -32
33 -71 45 -30 10 -72 33 -93 52 -20 19 -47 34 -58 34 -13 0 -28 12 -39 31 -11
18 -29 33 -45 36 -15 3 -33 12 -39 19 -21 25 -39 16 -39 -20 0 -37 24 -59 76
-72 16 -4 43 -22 60 -39 17 -18 44 -36 62 -39 17 -4 36 -14 43 -22 6 -8 17
-14 23 -14 7 0 23 -11 35 -24 13 -13 35 -27 49 -31 30 -7 42 -21 42 -47 0 -16
-13 -18 -125 -18 -116 0 -126 1 -145 23 -19 20 -32 22 -163 27 -103 4 -152 11
-179 23 -30 14 -67 17 -189 17 -147 0 -152 1 -181 25 -28 24 -35 25 -166 25
-100 1 -144 5 -162 15 -19 11 -66 14 -190 15 -91 0 -175 3 -188 6 -14 4 -32
24 -47 53 -35 69 -158 181 -199 181 -7 0 -35 20 -62 45 -30 29 -56 45 -72 45
-18 0 -43 18 -83 59 -41 42 -68 60 -93 65 -28 5 -37 13 -42 34 -5 16 -62 82
-146 165 -102 103 -138 144 -138 163 0 13 -10 32 -22 42 -48 39 -57 53 -63 96
-11 69 1 112 33 129 54 27 76 43 100 70 13 15 32 27 42 27 10 0 25 6 32 13 20
21 54 37 76 37 11 0 25 7 32 15 19 23 121 66 173 72 33 4 53 13 66 29 23 29
117 43 258 36 91 -4 106 -2 136 17 19 11 50 21 68 21 22 0 41 7 52 20 9 11 27
20 41 20 13 0 34 9 48 19 13 11 38 23 54 27 16 4 35 16 42 26 10 14 26 18 67
18 41 0 59 5 72 19 30 32 69 41 173 41 85 0 102 3 117 19 15 16 35 20 120 23
88 3 104 6 117 23 12 17 28 21 107 24 73 2 99 7 118 22 21 17 42 19 187 19
159 0 163 1 192 25 26 22 39 25 106 25 59 0 87 5 119 22 39 20 59 22 312 25
234 3 273 6 295 21 14 9 32 20 40 24 22 10 413 8 560 -3z m900 -1459 c14 -11
28 -20 32 -20 4 0 21 -13 39 -29 18 -17 46 -36 63 -43 17 -7 44 -27 60 -45 16
-18 35 -33 40 -33 6 0 34 -15 61 -34 28 -18 61 -37 75 -41 26 -8 33 -13 92
-71 35 -34 36 -37 22 -59 -34 -52 -77 -40 -206 57 -89 67 -131 88 -178 88 -33
0 -45 14 -54 61 -4 20 -18 49 -32 64 -34 37 -64 94 -57 111 7 18 13 17 43 -6z
m-3873 -616 c12 -17 31 -19 157 -22 133 -4 145 -6 168 -27 22 -21 37 -23 194
-29 147 -7 172 -10 190 -27 18 -17 36 -19 156 -19 125 0 137 -2 164 -22 26
-21 42 -23 192 -28 140 -4 165 -7 173 -22 18 -32 40 -47 77 -54 41 -7 88 -50
98 -90 4 -15 19 -30 39 -38 18 -8 52 -33 74 -55 22 -22 52 -43 66 -47 14 -3
30 -15 36 -25 5 -11 16 -19 24 -19 7 0 17 -9 20 -21 4 -11 25 -28 48 -38 23
-10 61 -37 85 -60 45 -44 82 -53 116 -28 17 13 17 15 -6 40 -14 15 -30 27 -37
27 -6 0 -23 18 -38 41 -17 26 -36 42 -55 46 -27 5 -118 84 -118 103 0 6 -7 10
-15 10 -9 0 -18 7 -21 15 -4 8 -12 15 -19 15 -7 0 -24 9 -38 20 -14 11 -32 20
-40 20 -13 0 -31 15 -80 68 -20 22 -13 52 13 52 9 0 29 -9 43 -20 21 -17 40
-20 119 -20 143 0 192 -9 224 -39 26 -24 38 -26 144 -32 63 -4 116 -7 117 -8
1 -1 8 -7 15 -15 8 -8 40 -28 71 -46 31 -17 60 -36 63 -41 3 -5 14 -9 24 -9
11 0 34 -16 53 -35 19 -19 41 -35 49 -35 15 0 48 -28 80 -68 9 -11 33 -24 52
-28 45 -8 106 3 106 20 0 16 -59 76 -75 76 -6 0 -50 30 -96 68 l-84 67 53 3
c40 2 59 -2 81 -17 25 -18 44 -21 138 -21 97 0 112 -2 143 -24 30 -20 50 -24
149 -28 106 -4 115 -6 132 -29 17 -23 24 -24 141 -27 106 -3 126 -6 141 -23
15 -16 32 -19 120 -19 83 0 110 -4 142 -20 33 -17 60 -20 180 -21 159 -2 184
-6 218 -35 23 -21 36 -22 278 -25 240 -4 256 -5 284 -25 27 -19 47 -22 180
-26 133 -3 154 -6 185 -26 30 -19 49 -22 137 -22 98 0 101 1 96 21 -3 11 -12
23 -19 26 -8 3 -14 11 -14 18 0 7 -7 18 -15 25 -11 9 -13 16 -6 23 7 7 18 4
34 -11 13 -12 31 -22 41 -22 30 0 56 -20 56 -43 0 -43 12 -65 38 -72 14 -3 49
-22 77 -41 29 -19 57 -34 64 -34 16 0 35 -45 28 -64 -5 -13 -22 -16 -79 -16
-80 0 -83 -2 -167 -94 -19 -21 -45 -42 -58 -47 -13 -5 -82 -9 -153 -9 -142 0
-162 -4 -204 -46 -49 -50 -78 -64 -131 -64 -82 -1 -134 -17 -168 -54 -34 -36
-100 -59 -194 -69 -38 -4 -60 -13 -80 -32 -57 -55 -95 -71 -189 -83 -90 -11
-91 -11 -141 -60 -41 -41 -58 -50 -99 -56 -51 -8 -134 -43 -134 -58 0 -15 -50
-28 -175 -47 -104 -16 -125 -22 -151 -46 -42 -39 -111 -84 -140 -91 -13 -3
-29 -15 -35 -25 -5 -11 -16 -19 -24 -19 -8 0 -15 -4 -15 -8 0 -14 -73 -40
-145 -51 -47 -7 -74 -16 -82 -28 -47 -67 -93 -83 -232 -83 -126 0 -185 -14
-226 -55 -40 -41 -94 -65 -144 -65 -77 0 -111 -12 -151 -53 -42 -41 -84 -56
-166 -57 -52 0 -122 -34 -136 -65 -6 -14 -15 -25 -20 -25 -5 0 -28 -9 -50 -20
-23 -11 -48 -20 -56 -20 -7 0 -34 -9 -60 -19 -26 -11 -64 -22 -84 -26 -21 -3
-43 -12 -51 -19 -7 -8 -28 -17 -45 -21 -18 -3 -32 -11 -32 -16 0 -5 -6 -9 -12
-9 -7 0 -31 -19 -53 -41 -22 -23 -55 -48 -74 -56 -19 -8 -47 -28 -64 -44 -50
-51 -74 -57 -238 -67 -153 -8 -154 -8 -201 -42 l-47 -33 -293 0 c-289 0 -293
1 -304 22 -6 11 -18 29 -27 38 -8 10 -23 37 -32 60 -15 37 -15 50 -5 94 12 47
11 51 -8 65 -53 37 -54 41 -26 95 33 62 28 113 -13 123 -18 5 -32 1 -47 -12
-11 -11 -43 -31 -71 -44 -60 -29 -92 -47 -124 -70 -31 -23 -82 -23 -110 1 -13
12 -38 19 -65 19 -26 1 -58 10 -78 22 -18 11 -41 20 -51 20 -9 0 -25 9 -34 20
-10 11 -21 20 -26 20 -4 0 -32 11 -60 24 -29 13 -81 31 -117 41 -36 9 -67 21
-70 25 -3 4 -16 10 -30 11 -35 5 -38 -29 -5 -65 33 -35 37 -116 6 -116 -11 0
-22 -4 -25 -9 -12 -18 -70 -18 -101 0 -17 11 -44 20 -58 21 -15 1 -27 5 -27 9
0 9 -49 29 -73 29 -13 0 -28 5 -35 12 -7 7 -27 17 -44 22 -41 14 -49 48 -19
80 11 12 24 37 27 56 4 19 13 39 21 43 7 4 13 14 13 22 0 7 5 15 10 17 6 2 13
27 17 57 6 49 4 55 -18 72 -13 10 -32 19 -43 19 -10 0 -46 27 -80 60 -33 33
-122 118 -196 190 -74 71 -138 133 -142 137 -61 63 -86 97 -92 123 -3 17 -24
49 -46 71 -22 22 -40 47 -40 55 0 9 -9 27 -20 41 -15 19 -20 41 -20 82 0 55 1
56 60 112 39 38 74 85 103 138 46 87 93 131 139 131 19 0 39 12 65 40 26 27
47 40 65 40 26 0 49 16 114 77 18 18 57 44 86 57 29 13 79 49 111 80 37 35 67
56 81 56 13 0 29 7 36 15 7 9 32 20 55 26 28 7 47 19 56 36 14 25 57 53 83 53
8 0 41 22 73 48 32 27 70 52 86 56 15 3 27 13 27 20 0 15 21 26 49 26 10 0 50
31 89 69 43 42 83 72 101 76 17 4 34 11 37 16 20 34 137 35 161 3z m16056
-369 c20 -8 38 -19 42 -25 3 -5 46 -10 96 -10 53 0 89 -4 89 -10 0 -5 7 -10
15 -10 8 0 15 -4 15 -10 0 -16 -80 -12 -96 5 -9 8 -33 15 -55 15 -26 0 -42 -5
-45 -15 -5 -12 -27 -15 -115 -15 -66 0 -109 4 -109 10 0 6 4 10 10 10 15 0 50
33 50 46 0 26 52 30 103 9z m1323 -251 c21 -15 40 -29 42 -33 14 -33 52 -37
52 -5 0 18 36 18 43 0 3 -8 28 -15 62 -19 31 -3 64 -12 74 -20 9 -8 32 -17 53
-21 20 -4 38 -13 41 -20 3 -7 25 -18 50 -24 24 -7 50 -18 57 -27 7 -8 18 -15
25 -15 18 0 75 -30 75 -40 0 -4 15 -11 34 -14 19 -4 45 -15 57 -25 13 -10 35
-22 49 -26 14 -4 34 -14 45 -21 11 -8 32 -14 47 -14 15 0 33 -8 40 -19 20 -28
88 -71 113 -71 12 0 28 -7 35 -15 7 -8 22 -15 35 -15 12 0 34 -11 48 -24 15
-14 36 -27 47 -31 11 -4 18 -11 15 -16 -4 -5 4 -9 17 -9 14 0 33 -7 44 -15 10
-8 26 -15 35 -15 9 0 24 -11 32 -24 20 -29 74 -40 151 -31 46 6 56 11 56 26 0
23 7 24 26 4 9 -8 21 -15 27 -15 7 0 6 4 -3 10 -13 8 -13 11 -1 19 14 9 92 3
101 -8 12 -14 59 -30 108 -36 49 -6 52 -9 52 -34 0 -30 -23 -83 -43 -99 -6 -5
-27 -13 -44 -17 -18 -3 -36 -12 -40 -18 -5 -7 -21 -17 -38 -22 -25 -9 -31 -16
-33 -46 -3 -30 1 -37 23 -47 14 -7 32 -12 39 -12 7 0 43 -29 79 -65 47 -46 74
-65 92 -65 18 0 40 -13 65 -39 23 -23 52 -41 72 -45 39 -7 125 -85 140 -127 9
-27 -3 -69 -20 -69 -14 0 -87 -75 -102 -103 -8 -16 -26 -35 -40 -42 -14 -7
-32 -25 -39 -38 -16 -29 -74 -68 -185 -123 -43 -21 -81 -44 -83 -51 -3 -6 -19
-15 -36 -19 -18 -4 -38 -15 -45 -25 -10 -15 -26 -19 -70 -19 -40 0 -66 -6 -87
-20 -16 -11 -43 -20 -59 -20 -17 0 -40 -10 -54 -22 -20 -19 -36 -23 -99 -25
-65 -1 -78 -4 -101 -26 -26 -25 -32 -26 -175 -29 -142 -3 -150 -4 -168 -26
l-19 -24 -225 4 c-132 1 -224 7 -222 12 2 5 30 28 64 52 33 23 72 54 86 68 14
14 32 26 40 26 7 0 46 32 86 70 40 39 79 70 85 70 7 0 23 12 37 28 23 26 24
32 21 136 -4 123 -11 140 -69 171 -53 28 -65 62 -75 200 l-8 119 -54 52 c-60
58 -76 96 -76 182 0 66 -24 120 -59 133 -51 20 -78 57 -86 117 -7 53 -44 122
-66 122 -27 0 -67 54 -79 108 -18 83 -29 101 -85 137 -65 42 -129 111 -121
130 8 23 49 18 92 -11z m-1803 -333 c14 -6 33 -24 43 -40 10 -17 24 -31 30
-31 7 0 17 -15 23 -32 15 -41 15 -42 2 -46 -6 -2 -15 7 -20 20 -7 17 -10 18
-10 6 -1 -22 -31 -24 -31 -3 0 11 -11 15 -40 15 -28 0 -40 4 -40 14 0 8 -7 17
-16 20 -8 3 -12 2 -9 -3 3 -5 0 -13 -6 -17 -8 -5 -9 -3 -4 6 6 10 4 12 -8 7
-9 -3 -19 -2 -22 3 -4 6 1 10 9 10 11 0 16 9 16 30 0 43 34 59 83 41z m-462
-173 c23 -28 24 -48 3 -48 -13 0 -15 -11 -12 -66 l3 -67 -34 -3 c-19 -3 -38
-9 -42 -15 -3 -6 -23 -11 -43 -11 -21 0 -44 -7 -53 -16 -16 -16 -16 -16 -10 1
6 15 -3 22 -25 18 -5 0 -8 5 -8 12 0 8 -4 7 -10 -3 -7 -12 -10 -12 -10 -1 0 7
-6 11 -15 8 -8 -4 -26 0 -40 7 -33 17 -175 10 -191 -10 -6 -8 -23 -14 -38 -14
-15 0 -26 -6 -26 -13 0 -8 -11 -19 -25 -25 -14 -7 -25 -20 -25 -31 0 -21 -49
-84 -50 -64 0 7 -7 10 -15 7 -14 -6 -13 -8 2 -20 10 -8 13 -13 6 -14 -7 0 -10
-6 -7 -13 3 -8 -4 -13 -18 -14 -16 -2 -19 0 -9 6 9 6 4 10 -18 13 -26 4 -31 1
-31 -16 0 -19 0 -20 -14 0 -10 14 -11 21 -3 26 8 5 4 15 -12 32 -14 14 -27 24
-29 21 -3 -2 5 -13 18 -23 20 -16 21 -19 7 -25 -11 -4 -17 -1 -17 8 0 8 -9 20
-20 28 -14 10 -20 24 -18 45 1 17 6 28 10 26 4 -3 8 2 8 10 0 25 32 56 57 56
13 0 23 5 23 10 0 6 30 10 71 10 76 0 69 -3 160 83 18 16 41 27 57 27 16 0 33
5 39 11 6 6 52 13 104 15 58 4 108 12 134 23 61 28 67 29 108 30 29 1 44 -5
58 -21z m-1314 -328 c19 0 38 -20 47 -48 8 -24 22 -29 29 -9 4 9 8 8 16 -3 7
-10 11 -11 11 -2 0 6 7 12 16 12 10 0 14 -6 10 -15 -4 -12 4 -15 44 -15 41 0
50 -3 50 -17 0 -10 12 -29 25 -42 14 -12 22 -27 19 -32 -3 -5 2 -9 10 -9 9 0
16 -4 16 -10 0 -5 3 -9 8 -9 4 1 9 0 12 -1 3 -1 14 -3 24 -5 11 -2 23 -11 28
-19 5 -9 18 -16 28 -16 11 0 20 -7 20 -15 0 -8 9 -15 20 -15 11 0 29 -9 40
-20 21 -21 35 -27 25 -10 -4 6 12 10 39 10 25 0 46 5 46 10 0 6 13 10 30 10
42 0 99 31 106 58 6 20 44 33 44 14 0 -4 15 -12 33 -17 17 -6 32 -16 32 -22 0
-7 10 -20 23 -28 12 -9 22 -14 22 -11 0 3 12 1 27 -5 37 -14 73 -4 73 21 0 11
4 20 9 20 6 0 13 21 17 48 4 32 14 54 32 70 28 24 29 24 87 22 22 0 70 5 106
13 36 8 98 13 137 12 59 -1 74 -5 89 -23 10 -11 34 -25 53 -30 25 -6 36 -14
38 -30 2 -12 17 -29 33 -39 16 -10 29 -20 29 -24 0 -3 12 -19 26 -34 34 -37
39 -65 13 -65 -11 0 -17 -4 -14 -10 3 -5 -1 -10 -10 -10 -10 0 -13 -5 -9 -12
4 -6 3 -8 -3 -5 -6 4 -25 4 -42 1 l-31 -7 3 -76 c3 -72 19 -113 57 -151 3 -3
12 -18 20 -35 21 -43 52 -75 73 -75 9 0 17 -4 17 -9 0 -11 113 -23 202 -22 37
0 69 -3 72 -8 3 -4 20 -8 37 -9 18 0 36 -8 41 -16 5 -9 21 -16 36 -16 15 0 41
-12 57 -26 27 -24 36 -26 95 -21 35 3 66 10 68 16 2 6 15 11 28 11 14 0 33 4
43 10 10 5 85 10 167 10 109 1 153 5 164 15 8 8 33 16 55 19 22 2 54 11 70 19
17 8 59 18 94 22 39 4 74 14 88 25 30 24 54 18 173 -39 46 -21 130 -29 130
-11 0 11 69 32 82 24 4 -3 8 -12 8 -20 0 -28 17 -13 30 26 7 22 19 45 27 51
13 12 18 80 6 93 -13 13 -13 50 -1 58 11 6 11 8 0 8 -10 0 -10 5 -1 21 11 21
8 60 -9 149 -13 64 -22 80 -48 90 -24 10 -27 41 -3 49 8 2 19 10 24 17 6 8 25
15 43 16 19 1 35 5 38 9 7 12 68 -22 88 -48 16 -22 17 -30 7 -63 -13 -42 -15
-150 -3 -150 4 0 12 -12 18 -27 7 -19 23 -32 49 -42 48 -17 83 -54 89 -95 20
-127 19 -142 -13 -174 -30 -29 -32 -30 -133 -29 -68 0 -103 -4 -106 -12 -2 -6
-10 -11 -18 -11 -8 0 -14 -4 -14 -10 0 -16 -37 -48 -77 -67 -28 -12 -78 -18
-187 -22 l-148 -6 -34 -39 c-32 -37 -37 -39 -114 -47 -50 -5 -86 -13 -96 -23
-8 -9 -21 -16 -27 -16 -7 0 -23 -15 -37 -34 -27 -37 -96 -66 -155 -66 -45 0
-114 -19 -135 -36 -12 -10 -82 -14 -272 -16 -244 -3 -258 -4 -272 -23 -14 -20
-24 -20 -413 -17 -337 2 -406 1 -448 -13 -38 -11 -122 -17 -350 -21 -221 -5
-304 -10 -315 -19 -11 -9 -68 -14 -198 -17 -149 -2 -184 -6 -192 -18 -8 -13
-54 -16 -284 -20 -256 -5 -275 -6 -296 -25 -22 -20 -35 -20 -677 -18 -397 1
-673 5 -702 12 -25 5 -132 12 -237 15 -155 5 -194 3 -203 -8 -6 -7 -42 -16
-81 -20 -38 -4 -72 -11 -75 -17 -8 -12 -112 -12 -120 1 -3 6 -19 10 -36 10
-24 0 -29 4 -29 24 0 20 -4 24 -25 21 -23 -2 -25 1 -25 36 0 22 5 39 11 39 6
0 9 -7 6 -14 -4 -9 -1 -13 7 -10 6 2 11 17 10 33 -2 32 4 45 26 54 10 4 8 6
-7 6 -13 1 -23 -3 -23 -9 0 -5 -4 -10 -10 -10 -5 0 -10 9 -10 20 0 24 -37 41
-69 33 -15 -4 -21 -1 -21 11 0 9 -8 16 -19 16 -21 0 -39 38 -23 49 5 3 12 16
16 29 7 22 26 31 26 12 0 -19 19 -10 26 12 4 13 16 37 27 54 18 27 26 31 66
31 28 0 47 5 49 12 4 11 6 10 13 0 7 -11 9 -10 9 4 0 13 6 17 22 15 13 -2 23
3 24 10 1 6 2 17 3 22 0 6 17 10 36 10 19 0 35 5 35 11 0 6 8 8 18 5 16 -6 16
-5 0 8 -10 7 -18 18 -18 24 0 6 -9 16 -20 22 -11 6 -20 19 -20 28 0 10 -7 27
-15 38 -8 10 -15 36 -15 56 0 33 3 37 33 44 17 4 97 8 177 8 157 1 150 -1 246
68 47 34 60 38 136 43 155 12 247 31 256 54 3 9 15 24 27 34 46 39 77 46 233
49 l152 3 45 46 45 46 98 5 c98 6 111 10 206 65 15 9 78 13 209 13 159 0 187
2 187 15 0 8 6 15 14 15 7 0 16 9 19 21 3 11 15 23 26 26 12 3 21 12 21 19 0
11 31 14 163 14 l163 0 28 29 c15 15 45 34 66 41 22 7 40 18 41 24 0 6 3 6 6
-1 2 -7 11 -13 20 -13z m-4193 -605 c-4 -10 3 -18 20 -25 32 -12 32 -20 4 -45
-28 -24 -48 -28 -48 -9 0 8 -5 14 -11 14 -5 0 -7 -4 -4 -10 3 -6 -4 -10 -18
-10 -15 0 -28 9 -37 25 -7 13 -17 22 -23 18 -5 -3 -2 -10 7 -15 9 -5 16 -13
16 -18 0 -16 -36 -12 -50 5 -8 9 -30 15 -60 15 -39 0 -49 -4 -53 -20 -3 -11
-11 -20 -17 -20 -7 0 -10 6 -7 14 3 8 3 17 -1 20 -11 12 -10 33 2 33 6 0 37 1
70 1 53 2 58 4 53 22 -5 19 0 20 79 20 70 0 82 -2 78 -15z m441 -505 c6 1 42
2 80 3 61 2 70 0 67 -15 -1 -9 6 -22 17 -27 11 -6 21 -21 23 -33 4 -28 58 -40
58 -14 0 9 6 16 13 16 9 0 12 -11 11 -35 -2 -24 1 -35 10 -35 8 0 28 -3 45 -6
28 -6 31 -4 31 19 0 22 5 26 32 29 35 3 52 28 19 28 -12 0 -21 6 -21 15 0 12
13 15 55 15 55 0 56 0 53 -27 l-3 -28 95 -2 c78 -1 96 -4 98 -17 5 -24 39 -19
46 7 5 18 8 20 16 7 9 -13 11 -13 20 0 5 8 10 10 10 4 0 -37 -93 -65 -112 -34
-11 16 -98 16 -98 -1 0 -5 -7 -9 -15 -9 -8 0 -15 -9 -15 -20 0 -11 7 -20 15
-20 8 0 15 -4 15 -9 0 -4 -21 -11 -46 -14 -26 -2 -50 -10 -53 -16 -10 -15 -73
-33 -80 -23 -9 12 -94 42 -119 42 -12 0 -22 -4 -22 -10 0 -5 -8 -10 -17 -10
-16 0 -38 -9 -125 -52 -10 -4 -98 -8 -195 -9 -98 0 -272 -4 -386 -8 -192 -6
-210 -8 -223 -26 -13 -17 -27 -20 -117 -21 -139 -1 -237 6 -237 17 0 6 15 16
33 24 17 7 43 25 57 40 25 27 73 56 100 62 8 1 49 5 92 7 67 4 84 9 140 42
l63 38 160 6 c161 6 195 13 213 47 6 9 27 27 48 40 32 19 48 22 89 17 28 -3
55 -5 60 -4z m4048 -1290 c9 -11 17 -25 17 -30 0 -6 4 -18 9 -28 22 -44 34
-94 43 -172 5 -47 14 -94 19 -106 6 -12 10 -32 8 -45 -5 -43 13 -93 43 -121
17 -15 34 -28 38 -28 4 0 10 -7 14 -15 3 -8 12 -15 20 -15 20 0 27 -38 9 -55
-19 -19 -56 -19 -94 0 -30 16 -70 18 -273 17 -65 -1 -130 5 -164 13 -66 18
-112 19 -167 4 -22 -6 -109 -15 -194 -20 -99 -5 -159 -13 -169 -21 -10 -9 -49
-13 -113 -14 -59 0 -103 -5 -112 -12 -17 -14 -160 -62 -186 -62 -24 0 -35 28
-19 47 6 8 26 20 44 28 17 7 49 29 70 48 41 36 105 77 164 103 19 9 42 21 50
28 17 14 71 31 149 46 56 11 121 44 121 61 0 6 18 18 40 28 50 22 120 80 120
98 0 7 9 13 20 13 11 0 23 7 26 15 4 8 12 15 18 15 7 0 32 18 55 41 39 37 50
41 115 48 85 10 152 39 186 80 29 36 67 41 93 11z m-149 -889 c10 -15 116 -21
179 -10 55 10 70 9 131 -10 43 -13 95 -21 141 -21 41 0 76 -4 79 -9 3 -5 23
-12 43 -16 21 -4 43 -10 48 -15 6 -4 31 -10 57 -13 26 -4 62 -16 80 -27 18
-11 43 -20 56 -20 13 0 42 -9 65 -19 23 -10 75 -27 115 -36 41 -10 89 -29 108
-42 19 -12 39 -23 43 -23 5 0 14 -6 20 -14 7 -8 35 -20 63 -26 43 -11 62 -24
127 -90 141 -143 201 -210 201 -223 0 -7 9 -20 20 -30 11 -9 20 -22 20 -29 0
-7 16 -33 35 -57 19 -24 35 -51 36 -60 0 -9 13 -38 29 -66 73 -127 83 -155 86
-241 1 -45 8 -92 14 -104 12 -23 11 -218 -1 -235 -4 -6 -11 -46 -15 -90 -4
-44 -10 -84 -14 -90 -3 -5 -15 -32 -25 -60 -10 -27 -21 -55 -26 -60 -4 -6 -11
-31 -15 -55 -4 -24 -16 -53 -26 -64 -10 -12 -21 -30 -24 -41 -3 -11 -25 -36
-50 -55 -24 -19 -44 -41 -44 -48 0 -6 -14 -27 -31 -45 -17 -17 -38 -42 -46
-54 -8 -12 -28 -25 -46 -29 -18 -4 -53 -28 -85 -60 -29 -30 -61 -54 -70 -54
-19 0 -73 -31 -105 -60 -11 -11 -28 -20 -36 -20 -9 0 -28 -6 -43 -14 -15 -8
-40 -17 -56 -21 -16 -3 -46 -22 -68 -41 -43 -40 -111 -74 -147 -74 -53 0 -91
-14 -122 -46 -36 -35 -115 -67 -197 -78 -27 -4 -48 -11 -48 -16 0 -4 -18 -15
-39 -23 -22 -9 -42 -21 -46 -27 -3 -5 -41 -10 -86 -10 -56 0 -90 -5 -112 -17
-21 -11 -64 -18 -129 -21 -54 -2 -98 -8 -98 -12 0 -12 -47 -21 -141 -26 -63
-3 -100 -10 -126 -24 -21 -11 -45 -20 -53 -20 -9 0 -21 -5 -27 -11 -17 -17
-184 -24 -224 -10 -25 9 -56 9 -119 2 -47 -6 -145 -15 -218 -20 -74 -4 -139
-14 -145 -20 -16 -16 -88 -13 -111 4 -15 11 -51 15 -145 15 -120 0 -201 12
-201 29 0 4 -17 16 -37 25 -71 31 -147 76 -156 91 -4 8 -12 15 -18 15 -5 0
-15 4 -22 10 -107 87 -137 110 -146 110 -6 0 -11 3 -11 8 0 13 -104 110 -185
172 -75 57 -135 115 -135 130 0 10 -36 68 -51 80 -3 3 -13 36 -22 74 -10 39
-21 72 -25 75 -4 4 -11 13 -17 22 -5 9 -22 34 -37 55 -19 28 -31 66 -44 139
-20 118 -24 370 -6 431 6 22 16 81 22 130 22 183 35 252 55 291 8 16 15 44 15
63 0 20 6 45 14 56 8 11 18 37 21 58 4 21 13 40 21 43 7 2 16 18 19 35 8 35
127 158 153 158 9 1 35 9 57 20 22 11 46 19 53 20 6 0 20 8 30 18 10 9 44 30
74 45 31 16 69 42 85 57 15 16 33 30 38 30 6 0 24 7 40 16 17 8 84 28 150 44
66 16 124 35 130 43 5 8 35 20 65 27 30 7 60 16 65 20 6 4 30 10 55 14 24 4
50 11 56 17 7 6 55 15 106 20 51 5 111 14 133 20 22 6 70 14 107 18 37 5 74
13 81 19 15 13 93 27 228 42 47 5 130 16 185 24 149 23 408 34 418 17z m-2624
-791 c0 -11 -9 -37 -20 -57 -11 -21 -20 -43 -20 -50 0 -7 -5 -13 -10 -13 -6 0
-18 -16 -27 -35 -15 -32 -15 -36 0 -53 26 -29 26 -39 -5 -192 -5 -30 -16 -69
-24 -86 -18 -41 -15 -317 4 -336 6 -6 12 -30 12 -53 0 -51 26 -187 47 -245 22
-62 53 -129 63 -135 8 -5 51 -92 70 -142 7 -18 16 -33 21 -33 5 0 9 -6 9 -13
0 -11 116 -196 130 -207 4 -3 19 -24 34 -48 14 -23 40 -54 58 -70 17 -15 47
-42 67 -59 20 -18 41 -33 46 -33 6 -1 21 -15 35 -32 34 -43 51 -60 84 -83 15
-11 41 -32 57 -47 16 -16 35 -28 42 -28 8 0 24 -11 37 -25 13 -14 43 -34 67
-46 23 -11 43 -24 43 -29 0 -4 26 -20 58 -36 31 -16 61 -34 65 -41 4 -7 18
-13 30 -13 25 -1 60 -27 69 -51 4 -9 0 -28 -7 -42 -7 -14 -16 -39 -20 -56 -4
-17 -10 -31 -15 -31 -4 0 -10 -9 -13 -20 -3 -11 -13 -23 -24 -27 -24 -9 -92
-82 -122 -131 -13 -22 -39 -49 -58 -59 -18 -9 -36 -27 -39 -38 -4 -11 -15 -26
-25 -33 -11 -7 -19 -20 -19 -28 0 -8 -7 -17 -15 -20 -8 -3 -17 -14 -20 -25 -4
-10 -13 -19 -21 -19 -8 0 -14 -7 -14 -15 0 -9 -16 -30 -34 -49 -19 -18 -38
-45 -42 -60 -3 -14 -9 -26 -13 -26 -4 0 -15 -23 -26 -50 -14 -35 -28 -54 -47
-63 -16 -6 -28 -17 -28 -23 0 -5 -8 -19 -19 -30 -10 -11 -34 -54 -53 -94 -19
-41 -46 -86 -60 -100 -30 -30 -65 -100 -74 -147 -3 -18 -10 -33 -14 -33 -5 0
-12 -10 -16 -22 -3 -12 -10 -26 -15 -32 -5 -6 -23 -27 -39 -46 -16 -19 -30
-43 -30 -53 0 -10 -4 -16 -9 -13 -9 6 -21 -40 -21 -85 0 -15 -4 -31 -10 -34
-5 -3 -10 -16 -10 -28 0 -12 -7 -31 -15 -41 -8 -11 -15 -30 -15 -42 0 -12 -7
-24 -15 -28 -8 -3 -20 -17 -25 -31 -5 -14 -14 -25 -19 -25 -6 0 -13 -17 -17
-37 -4 -21 -11 -41 -17 -44 -5 -4 -13 -43 -17 -87 -5 -45 -13 -89 -19 -99 -6
-10 -11 -14 -11 -10 0 13 -50 -49 -50 -62 0 -6 -9 -11 -21 -11 -11 0 -17 -4
-14 -10 4 -6 -6 -10 -22 -10 -15 0 -54 -6 -85 -14 -44 -10 -67 -23 -105 -59
l-48 -47 -123 0 c-112 0 -127 2 -155 22 -18 12 -36 28 -40 35 -4 7 -16 13 -27
13 -10 0 -20 5 -22 11 -2 6 -53 17 -113 25 -84 10 -277 13 -809 14 -707 0
-913 -8 -947 -37 -8 -7 -20 -13 -25 -13 -5 0 -22 -14 -38 -32 l-28 -32 -184
-7 c-180 -7 -186 -8 -225 -34 -21 -15 -39 -34 -39 -41 0 -8 -11 -16 -25 -20
-14 -3 -25 -10 -25 -15 0 -12 -1543 2 -1551 14 -7 11 17 131 33 164 6 12 24
25 40 28 18 4 39 22 59 51 18 26 38 44 49 44 10 0 23 8 29 18 5 9 12 16 15 15
3 -2 10 -3 15 -3 11 0 71 58 71 69 0 4 25 20 56 36 31 16 59 36 62 45 3 8 10
18 16 22 5 4 12 37 14 73 4 67 10 75 62 88 3 0 19 15 36 31 31 31 54 96 54
151 0 18 6 29 20 32 11 3 20 9 20 13 0 5 16 14 35 20 25 8 39 21 49 45 10 24
23 35 45 40 28 6 121 86 121 103 0 5 16 14 35 21 20 7 57 33 83 58 26 26 61
52 77 59 62 26 94 80 95 159 1 29 20 65 34 65 4 0 22 11 40 25 18 14 37 25 42
25 5 0 15 13 22 29 9 22 24 32 57 42 35 10 51 23 71 54 14 23 39 46 57 53 54
22 61 28 82 60 11 17 26 31 33 32 6 0 12 4 12 9 0 5 16 15 35 21 19 6 51 27
70 46 31 29 35 40 35 83 0 69 13 98 47 105 34 8 83 50 83 71 0 8 6 15 14 15 8
0 16 7 20 15 3 8 15 15 26 15 12 0 47 24 78 54 31 29 67 57 80 60 12 4 36 20
52 35 25 22 31 37 36 89 5 45 13 69 30 87 13 14 27 25 32 25 15 0 112 87 112
100 0 4 20 13 45 20 25 7 45 18 45 24 0 21 55 72 95 88 56 22 78 56 83 129 4
59 25 99 52 99 20 0 60 24 60 37 0 7 6 13 13 13 7 0 17 10 22 22 6 13 24 26
43 30 17 5 32 13 32 18 0 6 6 10 14 10 7 0 25 18 40 40 16 24 34 40 46 40 10
0 23 6 27 13 4 7 19 17 33 23 33 15 70 97 70 156 0 20 12 33 59 62 32 21 61
45 64 55 2 10 21 25 41 35 20 9 36 21 36 26 0 6 7 10 16 10 9 0 34 20 55 44
21 24 55 51 76 61 21 9 53 33 72 53 31 34 38 36 120 43 47 4 89 8 93 8 10 1
63 53 74 73 5 9 29 29 54 44 44 28 66 46 116 92 14 12 34 22 45 22 10 0 19 4
19 8 0 4 15 13 33 20 24 9 35 21 42 44 8 25 18 35 43 42 17 5 32 15 32 22 0 8
9 14 20 14 11 0 20 5 20 11 0 16 56 69 73 69 8 0 20 7 27 15 7 8 17 15 22 15
5 0 26 17 46 38 20 20 59 48 85 62 31 16 54 37 63 57 9 18 31 39 50 48 19 9
51 38 72 65 20 27 42 49 48 49 6 1 17 8 24 16 7 8 25 15 41 15 22 0 29 -5 29
-20z m4652 1 c13 -5 48 -14 78 -21 30 -7 58 -17 61 -22 3 -5 39 -12 80 -15 41
-3 77 -10 81 -16 3 -6 44 -12 90 -15 45 -3 86 -9 90 -15 4 -7 49 -12 105 -14
54 -1 145 -5 203 -9 103 -6 714 -9 1341 -6 173 1 373 7 444 12 72 6 140 8 152
5 37 -9 40 -29 33 -304 -2 -106 -18 -190 -41 -216 -5 -5 -9 -17 -9 -28 0 -10
-4 -16 -8 -13 -4 2 -16 -31 -27 -75 -10 -43 -22 -79 -27 -79 -4 0 -8 -28 -8
-62 0 -35 -6 -99 -14 -143 -8 -45 -17 -122 -21 -173 -4 -51 -10 -106 -15 -122
-4 -16 -6 -31 -2 -34 3 -3 0 -6 -7 -6 -6 0 -16 -11 -21 -25 -5 -14 -14 -25
-19 -25 -5 0 -12 -11 -15 -25 -4 -17 -11 -23 -19 -19 -7 4 -9 4 -5 0 3 -4 0
-23 -8 -41 -7 -18 -16 -69 -20 -114 -4 -45 -10 -81 -14 -81 -4 0 -10 -34 -13
-75 -3 -49 -11 -80 -21 -91 -9 -8 -16 -21 -16 -28 0 -22 -25 -66 -37 -66 -7 0
-13 -9 -13 -20 0 -11 -4 -20 -9 -20 -10 0 -27 -66 -41 -151 -17 -114 -32 -179
-41 -179 -5 0 -14 -11 -19 -25 -5 -14 -17 -28 -25 -31 -8 -4 -15 -12 -15 -19
0 -7 -7 -18 -15 -25 -8 -7 -17 -28 -21 -49 -3 -20 -12 -54 -19 -76 -7 -22 -17
-65 -23 -97 -8 -43 -19 -65 -46 -93 -20 -20 -36 -43 -36 -50 0 -7 -6 -18 -14
-24 -8 -7 -18 -27 -21 -44 -4 -18 -13 -52 -20 -77 -8 -25 -19 -63 -24 -86 -7
-27 -19 -45 -36 -54 -14 -7 -33 -31 -42 -52 -9 -21 -20 -38 -24 -38 -4 0 -11
-15 -14 -32 -4 -18 -16 -61 -27 -95 -19 -56 -28 -71 -70 -110 -24 -22 -35 -39
-43 -64 -4 -13 -18 -47 -31 -76 -13 -28 -24 -56 -24 -61 0 -5 -17 -27 -39 -49
-35 -36 -71 -94 -71 -114 0 -4 -5 -20 -11 -36 -6 -15 -10 -30 -11 -33 0 -3
-13 -13 -29 -23 -16 -11 -29 -24 -29 -31 0 -7 -11 -23 -25 -36 -14 -13 -25
-29 -25 -37 0 -7 -4 -13 -10 -13 -5 0 -13 -18 -16 -40 -4 -22 -10 -40 -13 -40
-4 0 -14 -16 -21 -35 -8 -20 -25 -41 -39 -48 -14 -7 -34 -30 -46 -52 -11 -22
-26 -46 -32 -53 -7 -7 -13 -17 -13 -22 0 -5 -24 -33 -53 -62 -50 -50 -72 -82
-68 -101 0 -4 -6 -10 -14 -13 -8 -4 -15 -10 -15 -15 0 -14 -62 -100 -76 -106
-8 -3 -14 -11 -14 -19 0 -8 -7 -14 -15 -14 -8 0 -15 -7 -15 -15 0 -26 -92 -34
-108 -8 -13 19 -121 23 -800 23 -429 1 -682 4 -682 10 0 6 -9 10 -19 10 -25 0
-36 16 -18 27 7 4 39 44 70 87 32 44 67 86 78 94 10 7 29 32 42 54 58 107 77
144 77 156 0 6 5 12 11 12 14 0 39 25 39 39 0 6 4 11 8 11 9 0 62 101 62 118
0 15 17 52 40 87 11 17 27 47 36 67 8 20 22 39 30 42 8 3 14 14 14 24 0 10 4
22 9 27 5 6 17 51 26 102 14 86 40 153 58 153 4 0 7 5 7 12 0 6 10 22 22 35
24 25 25 31 35 113 3 30 11 58 17 62 7 5 12 71 14 188 2 99 7 180 11 180 8 0
6 130 -5 320 -4 86 -12 138 -25 165 -9 23 -21 53 -24 68 -4 15 -13 27 -21 27
-8 0 -14 9 -14 20 0 11 -5 20 -10 20 -6 0 -16 12 -23 28 -6 15 -17 33 -24 40
-7 7 -16 25 -19 40 -4 15 -13 34 -20 42 -49 54 -84 88 -112 109 -18 13 -32 30
-32 37 0 8 -7 14 -15 14 -8 0 -15 4 -15 10 0 15 -41 49 -54 44 -7 -3 -26 2
-42 11 -16 8 -35 15 -42 15 -7 0 -20 4 -30 9 -9 5 -50 15 -90 22 -99 17 -151
63 -101 89 11 7 29 19 40 28 21 19 80 55 119 74 14 7 60 41 103 75 43 35 81
63 85 63 4 0 13 14 20 30 8 17 27 43 43 59 16 16 29 34 29 39 0 6 18 29 40 52
22 23 40 48 40 56 0 8 6 14 14 14 21 0 53 45 60 84 4 20 13 48 21 63 8 15 15
42 15 60 0 17 5 33 10 35 11 3 40 126 40 169 0 15 7 40 15 55 8 16 15 53 15
82 0 31 4 52 11 52 16 0 5 199 -15 280 -9 36 -20 105 -25 153 -8 81 -11 91
-41 120 -53 52 -67 112 -27 120 38 7 45 7 69 -2z m-4904 -5920 c20 -17 22 -28
22 -103 0 -111 10 -189 23 -181 6 4 8 0 4 -10 -3 -9 -1 -31 4 -49 6 -18 12
-41 14 -52 3 -10 11 -26 18 -35 8 -9 17 -24 20 -33 4 -10 11 -18 16 -18 5 0
12 -13 16 -30 4 -16 10 -30 14 -30 4 0 13 -33 20 -72 7 -40 14 -82 17 -93 2
-11 19 -37 39 -57 19 -20 35 -41 35 -47 0 -6 7 -11 15 -11 8 0 15 -5 15 -10 0
-6 11 -20 25 -32 14 -12 25 -26 25 -32 0 -14 90 -97 99 -91 11 6 91 -73 91
-90 0 -7 16 -16 35 -19 19 -4 41 -13 49 -22 8 -8 36 -17 63 -21 26 -3 58 -14
71 -24 13 -10 37 -21 54 -24 34 -8 61 -30 71 -57 4 -13 -1 -18 -21 -20 -15 -2
-26 -8 -25 -14 2 -8 -32 -13 -103 -16 -60 -2 -108 -8 -112 -14 -10 -16 -70
-25 -216 -33 -86 -5 -131 -11 -134 -19 -3 -9 -50 -12 -171 -12 -128 0 -171 -3
-187 -14 -29 -21 -983 -27 -1029 -7 -16 7 -84 15 -150 18 -66 3 -129 10 -140
16 -34 17 -87 28 -175 36 -83 8 -127 19 -182 47 -17 9 -61 14 -123 14 -93 0
-165 12 -193 33 -7 6 -68 12 -135 14 -86 3 -140 11 -182 25 -34 11 -101 22
-155 25 -71 4 -114 13 -170 34 -61 24 -90 29 -160 29 -77 0 -134 11 -167 33
-6 4 -56 10 -110 13 -101 5 -217 28 -242 48 -8 6 -68 12 -145 13 -264 5 -679
25 -701 33 -42 16 -336 24 -384 10 -26 -7 -109 -11 -205 -11 -89 0 -181 -4
-206 -10 -25 -6 -88 -14 -142 -18 -53 -4 -103 -13 -111 -20 -9 -6 -53 -21 -98
-32 -45 -11 -87 -23 -93 -28 -6 -5 -27 -12 -46 -16 -19 -4 -51 -15 -70 -25
-51 -26 -121 -57 -152 -69 -16 -6 -28 -15 -28 -21 0 -5 -11 -10 -25 -10 -14 0
-34 -9 -45 -20 -11 -11 -34 -23 -51 -27 -17 -3 -33 -12 -36 -19 -3 -8 -13 -14
-23 -14 -10 0 -26 -7 -35 -16 -21 -22 -115 -21 -127 0 -6 10 -23 16 -43 16
-19 0 -35 4 -35 8 0 7 -67 34 -91 36 -3 1 -19 15 -35 33 -16 17 -38 33 -49 35
-11 2 -19 9 -18 16 2 6 -3 9 -11 6 -18 -7 -35 66 -38 164 -3 64 0 75 17 87 11
8 25 19 32 25 7 5 16 10 21 10 4 0 21 17 37 39 16 21 37 42 46 47 106 57 99
48 126 179 l9 40 599 6 c330 3 610 9 623 13 12 5 22 12 22 17 0 5 7 9 15 9 8
0 15 4 15 10 0 22 68 78 128 104 17 8 32 21 32 29 0 36 28 42 254 48 122 4
228 9 236 11 37 10 100 50 100 63 0 7 10 21 22 29 19 14 73 16 378 16 207 0
374 5 400 11 29 7 55 22 75 43 49 54 60 56 247 56 207 0 288 10 319 39 13 12
26 21 31 21 4 0 8 5 8 11 0 6 10 19 23 30 21 18 65 18 1317 18 1252 0 1296 0
1318 -18z m3083 -606 c17 -19 43 -38 57 -42 27 -6 44 -17 65 -42 36 -42 77
-78 103 -91 16 -8 37 -22 47 -32 20 -17 36 -98 20 -98 -5 0 -24 -13 -42 -29
-19 -17 -59 -38 -90 -47 -35 -11 -65 -29 -81 -47 -53 -63 -114 -99 -172 -105
-32 -3 -48 -9 -48 -18 0 -8 -9 -14 -21 -14 -12 0 -39 -14 -60 -31 -42 -33 -50
-34 -124 -20 -27 5 -96 10 -153 10 -57 1 -111 5 -120 10 -10 5 -51 14 -91 20
-90 12 -106 24 -60 45 63 30 114 61 123 75 20 32 78 83 106 93 17 5 30 14 30
19 0 5 7 9 15 9 8 0 15 7 15 15 0 8 6 15 13 15 8 0 30 17 50 38 19 20 54 50
76 66 22 16 38 33 35 38 -6 10 101 118 143 146 13 8 23 22 23 32 0 13 9 20 28
23 50 9 82 -2 113 -38z m-7156 -650 c292 -7 362 -12 475 -34 109 -21 187 -31
295 -41 61 -5 131 -16 155 -24 25 -8 86 -17 135 -21 50 -4 99 -13 111 -20 12
-8 77 -19 145 -25 68 -7 129 -16 134 -20 19 -14 159 -40 255 -46 52 -4 107
-13 122 -20 14 -8 93 -19 175 -25 81 -6 153 -15 158 -19 18 -14 137 -40 224
-50 47 -5 104 -15 126 -23 22 -8 81 -18 130 -22 50 -4 106 -14 125 -22 27 -11
109 -17 350 -24 173 -5 342 -7 375 -4 33 3 180 10 326 15 178 6 285 14 324 25
33 8 91 15 130 15 38 0 113 7 165 16 52 8 146 19 209 24 62 4 116 12 120 17 3
6 51 15 106 21 55 6 129 18 165 26 36 9 87 16 113 16 26 0 62 6 80 14 18 7 75
16 127 20 52 5 100 12 105 16 23 19 310 41 470 37 480 -13 780 -38 850 -72 17
-8 56 -17 88 -20 31 -4 63 -13 71 -20 7 -8 27 -17 42 -21 16 -4 36 -12 44 -19
8 -7 32 -18 53 -25 21 -6 52 -25 70 -41 17 -16 36 -29 41 -29 10 0 111 -84
158 -133 16 -15 28 -34 28 -43 0 -8 7 -17 15 -20 24 -10 21 -158 -5 -212 -11
-22 -20 -45 -20 -51 0 -12 -75 -109 -110 -141 -75 -70 -219 -173 -270 -192
-13 -5 -27 -12 -30 -16 -10 -13 -69 -52 -80 -52 -5 0 -10 -4 -10 -10 0 -5 -15
-16 -33 -24 -18 -7 -46 -26 -63 -41 -16 -15 -42 -34 -58 -42 -16 -8 -40 -28
-53 -44 -14 -16 -29 -29 -35 -29 -16 0 -221 -212 -256 -265 -17 -26 -34 -63
-38 -81 -9 -50 -1 -204 12 -212 6 -4 14 -18 18 -32 8 -26 13 -38 43 -105 27
-60 26 -266 -2 -315 -11 -19 -22 -37 -25 -40 -3 -3 -23 -31 -44 -62 -39 -58
-189 -218 -204 -218 -5 0 -26 -16 -47 -35 -22 -19 -51 -37 -66 -40 -15 -4 -37
-15 -50 -26 -12 -10 -27 -19 -33 -19 -7 0 -29 -9 -51 -20 -22 -11 -49 -20 -60
-20 -11 0 -29 -6 -40 -13 -26 -18 -161 -67 -183 -67 -9 0 -29 -7 -44 -14 -16
-8 -58 -25 -95 -37 -38 -12 -73 -26 -78 -30 -6 -4 -40 -13 -75 -18 -36 -6 -81
-15 -100 -21 -19 -6 -107 -15 -194 -21 -87 -5 -167 -14 -177 -19 -10 -6 -66
-10 -126 -10 -128 0 -369 -25 -433 -45 -46 -15 -158 -37 -285 -56 -38 -6 -83
-17 -100 -24 -16 -7 -55 -18 -85 -25 -30 -6 -71 -15 -90 -20 -19 -5 -60 -12
-90 -15 -30 -4 -61 -11 -70 -16 -25 -13 -122 -37 -174 -43 -27 -3 -55 -11 -61
-16 -7 -6 -44 -13 -81 -16 -93 -6 -377 -42 -439 -55 -48 -10 -203 -27 -445
-49 -63 -5 -146 -17 -185 -26 -163 -37 -733 -52 -1350 -35 -380 11 -524 23
-609 51 -17 6 -109 15 -205 21 -116 7 -183 15 -197 24 -12 8 -64 19 -115 25
-52 6 -121 15 -154 20 -118 20 -271 41 -347 49 -43 4 -83 13 -90 19 -7 6 -42
13 -78 17 -57 6 -133 19 -370 66 -30 6 -73 19 -96 30 -23 10 -61 19 -85 19
-24 1 -62 8 -84 17 -22 8 -67 21 -100 27 -33 7 -72 17 -87 24 -14 6 -55 16
-90 22 -34 6 -83 20 -107 31 -25 12 -76 27 -114 35 -38 8 -82 21 -98 29 -15 8
-37 15 -49 15 -12 0 -40 9 -63 19 -23 11 -80 31 -127 46 -47 15 -92 31 -100
36 -8 5 -23 12 -32 15 -10 4 -18 10 -18 14 0 4 -19 12 -42 19 -24 7 -68 28
-99 47 -31 19 -61 34 -67 34 -29 0 -192 194 -192 228 0 5 -13 26 -30 48 -32
42 -39 94 -17 120 36 44 152 153 193 182 26 19 69 40 95 48 27 8 49 18 49 23
0 5 25 11 56 14 30 3 62 11 69 17 8 7 72 16 142 20 70 5 157 16 193 24 39 9
112 16 181 16 74 0 134 5 165 15 32 10 93 15 178 15 147 0 199 11 215 47 36
78 18 158 -42 186 -29 14 -69 17 -244 17 -114 -1 -228 -6 -253 -11 -46 -11
-349 -41 -430 -43 l-45 -1 1 225 c1 162 4 232 14 249 7 13 18 103 26 199 9
120 18 180 28 191 7 9 22 41 32 71 11 30 22 57 26 60 4 3 14 28 24 55 9 28 19
52 23 55 3 3 22 36 41 73 19 38 50 83 67 100 18 18 33 35 33 39 0 11 46 58 58
58 5 0 12 6 15 13 3 7 24 26 48 42 24 17 51 38 61 48 10 9 24 17 32 17 8 0 21
6 28 13 25 23 73 53 106 66 17 8 32 17 32 22 0 5 6 9 13 9 8 0 24 9 37 20 13
11 40 25 62 30 21 6 38 15 38 20 0 5 11 12 25 16 14 3 25 10 25 15 0 5 6 9 14
9 7 0 19 6 25 14 7 8 24 17 39 21 15 3 59 21 97 40 62 29 245 85 280 85 8 0
26 5 42 12 15 7 100 19 188 28 166 17 336 18 940 5z"/>
<path d="M10485 18340 c-4 -6 -10 -8 -15 -5 -4 3 -11 -2 -14 -11 -3 -9 -12
-14 -19 -11 -8 3 -19 -8 -27 -27 -7 -17 -18 -35 -24 -39 -8 -6 -7 -10 2 -14 6
-2 12 -19 12 -36 1 -44 21 -67 65 -74 21 -3 32 -9 25 -13 -8 -5 -7 -9 4 -13 8
-3 22 0 30 8 7 8 25 17 40 21 14 3 23 10 20 15 -3 5 10 9 29 9 41 0 45 4 39
35 -3 20 -10 25 -33 25 -16 0 -29 5 -29 10 0 6 10 10 23 10 21 0 23 4 21 46
-1 25 -8 52 -14 60 -14 16 -125 20 -135 4z"/>
<path d="M21133 19153 c-7 -13 -9 -32 -6 -41 3 -13 2 -14 -4 -4 -8 10 -12 10
-23 -3 -9 -11 -11 -33 -6 -77 5 -52 11 -67 36 -89 32 -30 37 -30 90 -6 19 8
38 13 43 10 4 -2 15 1 24 9 14 11 16 11 8 -2 -8 -13 -6 -13 8 -1 9 7 15 17 12
21 -3 4 2 13 10 20 8 7 15 9 15 6 0 -4 14 2 30 14 25 18 30 28 30 61 0 34 -4
41 -27 49 -33 12 -71 29 -98 43 -10 5 -44 11 -75 12 -50 2 -57 0 -67 -22z"/>
<path d="M20369 15098 c-17 -31 -17 -139 -2 -158 95 -113 132 -176 168 -287 8
-24 27 -60 43 -80 16 -21 35 -58 42 -83 7 -25 22 -54 34 -65 12 -11 31 -34 44
-52 38 -54 113 -65 169 -24 23 16 31 59 14 77 -5 5 -16 45 -25 89 -8 44 -22
94 -30 110 -9 17 -16 35 -16 41 0 6 -6 17 -14 23 -8 7 -18 25 -21 41 -3 16
-15 39 -25 52 -11 13 -23 28 -28 33 -4 6 -17 25 -27 43 -11 17 -23 32 -27 32
-4 0 -8 7 -8 15 0 8 -9 19 -20 25 -11 6 -20 17 -20 24 0 15 -42 56 -57 56 -6
0 -13 7 -17 15 -3 8 -17 20 -31 25 -14 5 -25 14 -25 20 0 5 -6 10 -14 10 -7 0
-25 9 -39 20 -33 26 -53 25 -68 -2z"/>
<path d="M19290 14876 c-21 -57 3 -349 31 -366 5 -3 13 -35 18 -70 6 -39 24
-94 45 -135 20 -38 36 -75 36 -81 0 -17 38 -87 63 -117 28 -33 86 -46 121 -27
54 28 53 152 -1 250 -16 30 -36 73 -43 95 -7 22 -16 45 -20 50 -5 6 -12 28
-16 50 -4 22 -13 49 -20 60 -6 11 -15 36 -19 55 -6 33 -18 68 -54 155 -22 54
-60 93 -99 101 -28 6 -33 3 -42 -20z"/>
<path d="M19335 7102 c-6 -5 -41 -17 -80 -27 -38 -10 -81 -24 -95 -32 -14 -7
-40 -13 -58 -13 -55 0 -98 -31 -121 -87 -11 -26 -10 -36 3 -61 8 -16 23 -32
31 -36 32 -12 91 -6 128 14 20 11 45 20 55 20 10 0 22 4 28 9 5 4 38 16 74 25
77 20 190 75 190 92 0 7 7 14 15 18 20 7 18 36 -4 64 -17 19 -29 22 -88 22
-38 0 -73 -4 -78 -8z"/>
<path d="M18295 6894 c-77 -8 -174 -19 -215 -24 -41 -5 -122 -14 -180 -20 -58
-5 -135 -14 -172 -20 -37 -5 -91 -10 -120 -10 -30 0 -58 -4 -64 -10 -5 -5 -41
-14 -79 -19 -285 -40 -366 -54 -411 -66 -28 -8 -69 -15 -92 -15 -23 0 -66 -6
-96 -14 -30 -8 -126 -20 -213 -26 -87 -6 -171 -15 -188 -20 -50 -14 -96 -19
-190 -21 -49 -1 -98 -5 -107 -10 -9 -5 -79 -13 -155 -19 -76 -5 -162 -14 -192
-19 -30 -6 -128 -15 -218 -21 -90 -6 -176 -16 -191 -21 -15 -6 -81 -13 -147
-16 -66 -3 -126 -10 -133 -16 -7 -5 -83 -14 -170 -19 -86 -4 -188 -13 -227
-19 -78 -12 -125 -15 -304 -24 -69 -4 -133 -10 -142 -16 -27 -14 -374 -14
-445 1 -94 19 -211 10 -251 -18 -38 -27 -51 -74 -33 -126 12 -38 31 -47 130
-66 81 -15 646 -16 664 -1 10 8 93 16 237 22 122 5 249 13 283 18 33 6 97 13
141 16 44 4 107 13 140 20 33 8 116 19 185 25 69 7 168 16 220 21 52 4 140 15
195 24 106 17 229 29 468 45 82 5 154 13 160 17 6 4 68 12 137 19 69 7 168 20
220 28 52 9 120 16 150 16 30 0 88 9 129 20 41 11 96 20 122 20 26 0 50 4 53
9 5 8 98 24 218 36 32 4 60 10 63 15 3 5 40 11 83 15 42 3 90 10 105 15 44 14
317 48 480 60 82 5 157 14 166 20 10 5 52 12 95 16 64 6 82 11 106 34 41 38
47 72 20 110 -21 30 -58 51 -83 49 -7 -1 -75 -8 -152 -15z"/>
<path d="M11673 5984 c-65 -51 -43 -103 110 -264 19 -19 44 -50 57 -67 13 -18
30 -33 37 -33 7 0 13 -6 13 -13 0 -8 19 -32 43 -54 23 -22 78 -77 122 -122
165 -167 167 -168 229 -157 37 7 56 37 56 87 0 38 -13 63 -61 116 -22 24 -39
47 -39 53 0 5 -6 10 -13 10 -16 0 -67 52 -67 68 0 7 -6 12 -13 12 -8 0 -40 28
-72 63 -32 34 -85 90 -117 124 -32 34 -58 65 -58 70 -1 11 -89 95 -122 116
-38 24 -67 21 -105 -9z"/>
</g>
</svg>
